<svg width="4148" height="847" viewBox="0 0 4148 847" fill="none" xmlns="http://www.w3.org/2000/svg">
<path d="M1760.86 257.652V168.909H2178.97V257.652H2023.11V678H1916.72V257.652H1760.86ZM2206.19 678V296.182H2308.85V362.801H2312.83C2319.79 339.103 2331.47 321.205 2347.88 309.108C2364.28 296.845 2383.18 290.713 2404.55 290.713C2409.86 290.713 2415.58 291.044 2421.71 291.707C2427.84 292.37 2433.22 293.282 2437.86 294.442V388.405C2432.89 386.913 2426.02 385.588 2417.23 384.428C2408.45 383.268 2400.41 382.688 2393.12 382.688C2377.54 382.688 2363.62 386.085 2351.36 392.879C2339.26 399.508 2329.65 408.788 2322.52 420.72C2315.56 432.652 2312.08 446.407 2312.08 461.984V678H2206.19ZM2492.61 678V296.182H2598.51V678H2492.61ZM2545.81 246.963C2530.07 246.963 2516.56 241.743 2505.29 231.303C2494.19 220.696 2488.64 208.019 2488.64 193.27C2488.64 178.687 2494.19 166.175 2505.29 155.734C2516.56 145.128 2530.07 139.825 2545.81 139.825C2561.55 139.825 2574.98 145.128 2586.08 155.734C2597.35 166.175 2602.98 178.687 2602.98 193.27C2602.98 208.019 2597.35 220.696 2586.08 231.303C2574.98 241.743 2561.55 246.963 2545.81 246.963ZM3001.02 405.06L2904.08 411.026C2902.42 402.74 2898.86 395.282 2893.39 388.653C2887.92 381.859 2880.71 376.473 2871.76 372.496C2862.98 368.353 2852.45 366.281 2840.19 366.281C2823.78 366.281 2809.95 369.761 2798.68 376.722C2787.41 383.516 2781.77 392.631 2781.77 404.065C2781.77 413.18 2785.42 420.886 2792.71 427.183C2800 433.481 2812.52 438.535 2830.25 442.347L2899.35 456.267C2936.47 463.89 2964.15 476.153 2982.38 493.057C3000.61 509.96 3009.72 532.167 3009.72 559.676C3009.72 584.7 3002.35 606.658 2987.6 625.55C2973.01 644.442 2952.96 659.191 2927.44 669.797C2902.09 680.237 2872.84 685.457 2839.69 685.457C2789.15 685.457 2748.88 674.934 2718.88 653.888C2689.05 632.676 2671.57 603.84 2666.43 567.382L2770.59 561.913C2773.74 577.325 2781.36 589.091 2793.46 597.212C2805.55 605.166 2821.05 609.143 2839.94 609.143C2858.5 609.143 2873.42 605.58 2884.69 598.455C2896.12 591.163 2901.92 581.8 2902.09 570.365C2901.92 560.753 2897.86 552.882 2889.91 546.75C2881.95 540.453 2869.69 535.647 2853.12 532.332L2786.99 519.158C2749.71 511.7 2721.95 498.774 2703.72 480.379C2685.66 461.984 2676.62 438.535 2676.62 410.031C2676.62 385.505 2683.25 364.375 2696.51 346.643C2709.93 328.911 2728.74 315.24 2752.94 305.628C2777.3 296.016 2805.8 291.21 2838.45 291.21C2886.67 291.21 2924.62 301.402 2952.3 321.785C2980.14 342.169 2996.38 369.927 3001.02 405.06ZM3279.49 296.182V375.727H3049.56V296.182H3279.49ZM3101.76 204.705H3207.65V560.67C3207.65 570.448 3209.14 578.071 3212.13 583.54C3215.11 588.843 3219.25 592.571 3224.56 594.726C3230.03 596.88 3236.32 597.957 3243.45 597.957C3248.42 597.957 3253.39 597.543 3258.36 596.714C3263.33 595.72 3267.15 594.974 3269.8 594.477L3286.45 673.277C3281.15 674.934 3273.69 676.84 3264.08 678.994C3254.47 681.314 3242.79 682.723 3229.03 683.22C3203.51 684.214 3181.14 680.817 3161.91 673.028C3142.86 665.24 3128.02 653.142 3117.42 636.736C3106.81 620.33 3101.59 599.615 3101.76 574.591V204.705ZM3457.35 685.209C3432.99 685.209 3411.28 680.983 3392.22 672.531C3373.17 663.914 3358.09 651.236 3346.98 634.499C3336.04 617.595 3330.58 596.549 3330.58 571.359C3330.58 550.147 3334.47 532.332 3342.26 517.915C3350.05 503.497 3360.65 491.897 3374.08 483.114C3387.5 474.33 3402.75 467.702 3419.82 463.227C3437.05 458.753 3455.11 455.604 3474.01 453.781C3496.21 451.461 3514.11 449.307 3527.7 447.318C3541.29 445.164 3551.15 442.015 3557.28 437.872C3563.41 433.729 3566.48 427.598 3566.48 419.477V417.986C3566.48 402.242 3561.51 390.062 3551.56 381.445C3541.79 372.827 3527.86 368.518 3509.8 368.518C3490.74 368.518 3475.58 372.744 3464.31 381.196C3453.04 389.482 3445.59 399.922 3441.94 412.517L3344 404.562C3348.97 381.362 3358.75 361.31 3373.33 344.406C3387.91 327.337 3406.72 314.245 3429.76 305.131C3452.96 295.85 3479.81 291.21 3510.3 291.21C3531.51 291.21 3551.81 293.696 3571.2 298.668C3590.76 303.639 3608.07 311.345 3623.15 321.785C3638.4 332.226 3650.41 345.649 3659.2 362.055C3667.98 378.296 3672.37 397.768 3672.37 420.472V678H3571.95V625.053H3568.96C3562.83 636.984 3554.63 647.508 3544.35 656.622C3534.08 665.571 3521.73 672.614 3507.32 677.751C3492.9 682.723 3476.24 685.209 3457.35 685.209ZM3487.68 612.126C3503.26 612.126 3517.01 609.061 3528.94 602.929C3540.87 596.632 3550.24 588.18 3557.03 577.574C3563.83 566.968 3567.22 554.953 3567.22 541.53V501.011C3563.91 503.166 3559.35 505.154 3553.55 506.977C3547.92 508.634 3541.54 510.209 3534.41 511.7C3527.28 513.026 3520.16 514.269 3513.03 515.429C3505.91 516.423 3499.44 517.335 3493.64 518.163C3481.21 519.986 3470.36 522.886 3461.08 526.864C3451.8 530.841 3444.59 536.227 3439.45 543.021C3434.32 549.65 3431.75 557.936 3431.75 567.879C3431.75 582.297 3436.97 593.317 3447.41 600.94C3458.01 608.398 3471.44 612.126 3487.68 612.126ZM3860.42 457.261V678H3754.53V296.182H3855.45V363.547H3859.93C3868.38 341.34 3882.55 323.774 3902.43 310.848C3922.32 297.756 3946.43 291.21 3974.77 291.21C4001.28 291.21 4024.4 297.01 4044.12 308.611C4063.84 320.211 4079.17 336.783 4090.11 358.327C4101.05 379.705 4106.52 405.225 4106.52 434.889V678H4000.62V453.781C4000.79 430.415 3994.82 412.186 3982.72 399.094C3970.63 385.836 3953.97 379.207 3932.76 379.207C3918.51 379.207 3905.91 382.273 3894.98 388.405C3884.2 394.536 3875.75 403.485 3869.62 415.251C3863.65 426.852 3860.59 440.855 3860.42 457.261Z" fill="white"/>
<path d="M396.955 22.2873C404.497 14.437 414.913 10 425.799 10H1226.17C1237.07 10 1247.5 14.4507 1255.04 22.3223L1610.06 392.732C1625.07 408.394 1624.86 433.166 1609.58 448.572L1255.07 806.162C1247.56 813.738 1237.33 818 1226.66 818H425.337C414.669 818 404.442 813.738 396.931 806.162L41.9581 448.114C26.6714 432.695 26.4768 407.896 41.5195 392.239L396.955 22.2873Z" fill="#7C3AED" stroke="#622DBD" stroke-width="20"/>
<path d="M614.245 506.565L402.024 421.368L614.245 336.171C624.669 331.987 631.5 321.883 631.5 310.651V254.159C631.5 234.299 611.093 220.987 592.917 228.991L282.917 365.496C272.94 369.89 266.5 379.762 266.5 390.664V452.072C266.5 462.974 272.94 472.846 282.918 477.24L592.918 613.745C611.093 621.749 631.5 608.437 631.5 588.577V532.085C631.5 520.853 624.669 510.749 614.245 506.565ZM798.046 688.665L951.342 119.148C956.045 101.675 942.882 84.5 924.787 84.5H874.982C862.547 84.5 851.659 92.8446 848.427 104.852L695.131 674.369C690.428 691.842 703.591 709.017 721.686 709.017H771.491C783.926 709.017 794.814 700.672 798.046 688.665ZM1032.29 336.171L1244.51 421.368L1032.29 506.565C1021.87 510.749 1015.04 520.853 1015.04 532.085V588.577C1015.04 608.437 1035.44 621.749 1053.62 613.745L1363.62 477.24C1373.6 472.846 1380.04 462.974 1380.04 452.072V390.664C1380.04 379.762 1373.6 369.89 1363.62 365.496L1053.62 228.991C1035.44 220.987 1015.04 234.299 1015.04 254.159V310.651C1015.04 321.883 1021.87 331.987 1032.29 336.171Z" fill="white" stroke="#622DBD" stroke-width="15"/>
</svg>
