<svg width="1014" height="201" viewBox="0 0 1014 201" fill="none" xmlns="http://www.w3.org/2000/svg">
<rect x="263" width="12" height="201" fill="#D9D9D9"/>
<path d="M360.455 136V66.1818H402.318V73.6818H368.909V97.2727H399.182V104.773H368.909V136H360.455ZM415.145 136V83.6364H422.918V91.5455H423.463C424.418 88.9545 426.145 86.8523 428.645 85.2386C431.145 83.625 433.963 82.8182 437.099 82.8182C437.69 82.8182 438.429 82.8295 439.315 82.8523C440.202 82.875 440.872 82.9091 441.327 82.9545V91.1364C441.054 91.0682 440.429 90.9659 439.452 90.8295C438.497 90.6705 437.486 90.5909 436.418 90.5909C433.872 90.5909 431.599 91.125 429.599 92.1932C427.622 93.2386 426.054 94.6932 424.895 96.5568C423.759 98.3977 423.19 100.5 423.19 102.864V136H415.145ZM466.273 137.227C462.955 137.227 459.943 136.602 457.239 135.352C454.534 134.08 452.386 132.25 450.795 129.864C449.205 127.455 448.409 124.545 448.409 121.136C448.409 118.136 449 115.705 450.182 113.841C451.364 111.955 452.943 110.477 454.92 109.409C456.898 108.341 459.08 107.545 461.466 107.023C463.875 106.477 466.295 106.045 468.727 105.727C471.909 105.318 474.489 105.011 476.466 104.807C478.466 104.58 479.92 104.205 480.83 103.682C481.761 103.159 482.227 102.25 482.227 100.955V100.682C482.227 97.3182 481.307 94.7045 479.466 92.8409C477.648 90.9773 474.886 90.0455 471.182 90.0455C467.341 90.0455 464.33 90.8864 462.148 92.5682C459.966 94.25 458.432 96.0455 457.545 97.9545L449.909 95.2273C451.273 92.0455 453.091 89.5682 455.364 87.7955C457.659 86 460.159 84.75 462.864 84.0455C465.591 83.3182 468.273 82.9545 470.909 82.9545C472.591 82.9545 474.523 83.1591 476.705 83.5682C478.909 83.9545 481.034 84.7614 483.08 85.9886C485.148 87.2159 486.864 89.0682 488.227 91.5455C489.591 94.0227 490.273 97.3409 490.273 101.5V136H482.227V128.909H481.818C481.273 130.045 480.364 131.261 479.091 132.557C477.818 133.852 476.125 134.955 474.011 135.864C471.898 136.773 469.318 137.227 466.273 137.227ZM467.5 130C470.682 130 473.364 129.375 475.545 128.125C477.75 126.875 479.409 125.261 480.523 123.284C481.659 121.307 482.227 119.227 482.227 117.045V109.682C481.886 110.091 481.136 110.466 479.977 110.807C478.841 111.125 477.523 111.409 476.023 111.659C474.545 111.886 473.102 112.091 471.693 112.273C470.307 112.432 469.182 112.568 468.318 112.682C466.227 112.955 464.273 113.398 462.455 114.011C460.659 114.602 459.205 115.5 458.091 116.705C457 117.886 456.455 119.5 456.455 121.545C456.455 124.341 457.489 126.455 459.557 127.886C461.648 129.295 464.295 130 467.5 130ZM504.957 136V83.6364H512.73V91.8182H513.412C514.503 89.0227 516.264 86.8523 518.696 85.3068C521.128 83.7386 524.048 82.9545 527.457 82.9545C530.912 82.9545 533.787 83.7386 536.082 85.3068C538.401 86.8523 540.207 89.0227 541.503 91.8182H542.048C543.389 89.1136 545.401 86.9659 548.082 85.375C550.764 83.7614 553.98 82.9545 557.73 82.9545C562.412 82.9545 566.241 84.4205 569.219 87.3523C572.196 90.2614 573.685 94.7955 573.685 100.955V136H565.639V100.955C565.639 97.0909 564.582 94.3295 562.469 92.6705C560.355 91.0114 557.866 90.1818 555.003 90.1818C551.321 90.1818 548.469 91.2955 546.446 93.5227C544.423 95.7273 543.412 98.5227 543.412 101.909V136H535.23V100.136C535.23 97.1591 534.264 94.7614 532.332 92.9432C530.401 91.1023 527.912 90.1818 524.866 90.1818C522.776 90.1818 520.821 90.7386 519.003 91.8523C517.207 92.9659 515.753 94.5114 514.639 96.4886C513.548 98.4432 513.003 100.705 513.003 103.273V136H504.957ZM610.349 137.091C605.304 137.091 600.952 135.977 597.293 133.75C593.656 131.5 590.849 128.364 588.872 124.341C586.918 120.295 585.94 115.591 585.94 110.227C585.94 104.864 586.918 100.136 588.872 96.0455C590.849 91.9318 593.599 88.7273 597.122 86.4318C600.668 84.1136 604.804 82.9545 609.531 82.9545C612.259 82.9545 614.952 83.4091 617.611 84.3182C620.27 85.2273 622.69 86.7045 624.872 88.75C627.054 90.7727 628.793 93.4545 630.088 96.7955C631.384 100.136 632.031 104.25 632.031 109.136V112.545H591.668V105.591H623.849C623.849 102.636 623.259 100 622.077 97.6818C620.918 95.3636 619.259 93.5341 617.099 92.1932C614.963 90.8523 612.44 90.1818 609.531 90.1818C606.327 90.1818 603.554 90.9773 601.213 92.5682C598.895 94.1364 597.111 96.1818 595.861 98.7045C594.611 101.227 593.986 103.932 593.986 106.818V111.455C593.986 115.409 594.668 118.761 596.031 121.511C597.418 124.239 599.338 126.318 601.793 127.75C604.247 129.159 607.099 129.864 610.349 129.864C612.463 129.864 614.372 129.568 616.077 128.977C617.804 128.364 619.293 127.455 620.543 126.25C621.793 125.023 622.759 123.5 623.44 121.682L631.213 123.864C630.395 126.5 629.02 128.818 627.088 130.818C625.156 132.795 622.77 134.341 619.929 135.455C617.088 136.545 613.895 137.091 610.349 137.091ZM644.27 136V83.6364H652.043V91.5455H652.588C653.543 88.9545 655.27 86.8523 657.77 85.2386C660.27 83.625 663.088 82.8182 666.224 82.8182C666.815 82.8182 667.554 82.8295 668.44 82.8523C669.327 82.875 669.997 82.9091 670.452 82.9545V91.1364C670.179 91.0682 669.554 90.9659 668.577 90.8295C667.622 90.6705 666.611 90.5909 665.543 90.5909C662.997 90.5909 660.724 91.125 658.724 92.1932C656.747 93.2386 655.179 94.6932 654.02 96.5568C652.884 98.3977 652.315 100.5 652.315 102.864V136H644.27ZM708.08 66.1818H718.17L741.898 124.136H742.716L766.443 66.1818H776.534V136H768.625V82.9545H767.943L746.125 136H738.489L716.67 82.9545H715.989V136H708.08V66.1818ZM813.668 137.091C808.94 137.091 804.793 135.966 801.224 133.716C797.679 131.466 794.906 128.318 792.906 124.273C790.929 120.227 789.94 115.5 789.94 110.091C789.94 104.636 790.929 99.875 792.906 95.8068C794.906 91.7386 797.679 88.5795 801.224 86.3295C804.793 84.0795 808.94 82.9545 813.668 82.9545C818.395 82.9545 822.531 84.0795 826.077 86.3295C829.645 88.5795 832.418 91.7386 834.395 95.8068C836.395 99.875 837.395 104.636 837.395 110.091C837.395 115.5 836.395 120.227 834.395 124.273C832.418 128.318 829.645 131.466 826.077 133.716C822.531 135.966 818.395 137.091 813.668 137.091ZM813.668 129.864C817.259 129.864 820.213 128.943 822.531 127.102C824.849 125.261 826.565 122.841 827.679 119.841C828.793 116.841 829.349 113.591 829.349 110.091C829.349 106.591 828.793 103.33 827.679 100.307C826.565 97.2841 824.849 94.8409 822.531 92.9773C820.213 91.1136 817.259 90.1818 813.668 90.1818C810.077 90.1818 807.122 91.1136 804.804 92.9773C802.486 94.8409 800.77 97.2841 799.656 100.307C798.543 103.33 797.986 106.591 797.986 110.091C797.986 113.591 798.543 116.841 799.656 119.841C800.77 122.841 802.486 125.261 804.804 127.102C807.122 128.943 810.077 129.864 813.668 129.864ZM872.449 83.6364V90.4545H845.312V83.6364H872.449ZM853.222 71.0909H861.267V121C861.267 123.273 861.597 124.977 862.256 126.114C862.938 127.227 863.801 127.977 864.847 128.364C865.915 128.727 867.04 128.909 868.222 128.909C869.108 128.909 869.835 128.864 870.403 128.773C870.972 128.659 871.426 128.568 871.767 128.5L873.403 135.727C872.858 135.932 872.097 136.136 871.119 136.341C870.142 136.568 868.903 136.682 867.403 136.682C865.131 136.682 862.903 136.193 860.722 135.216C858.563 134.239 856.767 132.75 855.335 130.75C853.926 128.75 853.222 126.227 853.222 123.182V71.0909ZM884.551 136V83.6364H892.597V136H884.551ZM888.642 74.9091C887.074 74.9091 885.722 74.375 884.585 73.3068C883.472 72.2386 882.915 70.9545 882.915 69.4545C882.915 67.9545 883.472 66.6705 884.585 65.6023C885.722 64.5341 887.074 64 888.642 64C890.21 64 891.551 64.5341 892.665 65.6023C893.801 66.6705 894.369 67.9545 894.369 69.4545C894.369 70.9545 893.801 72.2386 892.665 73.3068C891.551 74.375 890.21 74.9091 888.642 74.9091ZM928.605 137.091C923.878 137.091 919.73 135.966 916.162 133.716C912.616 131.466 909.844 128.318 907.844 124.273C905.866 120.227 904.878 115.5 904.878 110.091C904.878 104.636 905.866 99.875 907.844 95.8068C909.844 91.7386 912.616 88.5795 916.162 86.3295C919.73 84.0795 923.878 82.9545 928.605 82.9545C933.332 82.9545 937.469 84.0795 941.014 86.3295C944.582 88.5795 947.355 91.7386 949.332 95.8068C951.332 99.875 952.332 104.636 952.332 110.091C952.332 115.5 951.332 120.227 949.332 124.273C947.355 128.318 944.582 131.466 941.014 133.716C937.469 135.966 933.332 137.091 928.605 137.091ZM928.605 129.864C932.196 129.864 935.151 128.943 937.469 127.102C939.787 125.261 941.503 122.841 942.616 119.841C943.73 116.841 944.287 113.591 944.287 110.091C944.287 106.591 943.73 103.33 942.616 100.307C941.503 97.2841 939.787 94.8409 937.469 92.9773C935.151 91.1136 932.196 90.1818 928.605 90.1818C925.014 90.1818 922.06 91.1136 919.741 92.9773C917.423 94.8409 915.707 97.2841 914.594 100.307C913.48 103.33 912.923 106.591 912.923 110.091C912.923 113.591 913.48 116.841 914.594 119.841C915.707 122.841 917.423 125.261 919.741 127.102C922.06 128.943 925.014 129.864 928.605 129.864ZM972.659 104.5V136H964.614V83.6364H972.386V91.8182H973.068C974.295 89.1591 976.159 87.0227 978.659 85.4091C981.159 83.7727 984.386 82.9545 988.341 82.9545C991.886 82.9545 994.989 83.6818 997.648 85.1364C1000.31 86.5682 1002.38 88.75 1003.85 91.6818C1005.33 94.5909 1006.07 98.2727 1006.07 102.727V136H998.023V103.273C998.023 99.1591 996.955 95.9545 994.818 93.6591C992.682 91.3409 989.75 90.1818 986.023 90.1818C983.455 90.1818 981.159 90.7386 979.136 91.8523C977.136 92.9659 975.557 94.5909 974.398 96.7273C973.239 98.8636 972.659 101.455 972.659 104.5Z" fill="white"/>
<g clip-path="url(#clip0_78_518)">
<path d="M177 13V101.5L132.75 145.75L88.5 190L44.25 145.75L88.5 101.5L177 13Z" fill="#F2F2F2"/>
<path d="M177 101.5V190L132.75 145.75L177 101.5Z" fill="#E7E7E7"/>
<path d="M88.5 101.5L44.25 145.75L0 190V13L44.25 57.25L88.5 101.5Z" fill="white"/>
</g>
<defs>
<clipPath id="clip0_78_518">
<rect width="177" height="177" fill="white" transform="translate(0 13)"/>
</clipPath>
</defs>
</svg>
